<?xml version="1.0" encoding="UTF-8"?><svg xmlns="http://www.w3.org/2000/svg" xmlns:xlink="http://www.w3.org/1999/xlink" contentStyleType="text/css" height="1860px" preserveAspectRatio="none" style="width:1213px;height:1860px;background:#FFFFFF;" version="1.1" viewBox="0 0 1213 1860" width="1213px" zoomAndPan="magnify">
    <defs/>
    <g>
        <text fill="#000000" font-family="Verdana" font-size="22" font-weight="bold" lengthAdjust="spacing" textLength="832" x="189" y="37.1182">Diagramme d'activité : Création &amp; Réinitialisation de Mot de Passe</text>
        <ellipse cx="602.5" cy="62.7373" fill="#FFFFFF" rx="10" ry="10" style="stroke:#000000;stroke-width:1.0;"/>
        <rect fill="#FFFFFF" height="1730.2539" style="stroke:#000000;stroke-width:1.0;" width="1201" x="6" y="82.7373"/>
        <path d="M285,82.7373 L285,92.752 L275,102.752 L6,102.752 " fill="none" style="stroke:#000000;stroke-width:1.0;"/>
        <text fill="#000000" font-family="Verdana" font-size="14" lengthAdjust="spacing" textLength="269" x="9" y="97.8125">Flux 2 : Challenge Mot de Passe Perdu</text>
        <rect fill="#FFFFFF" height="34.584" rx="12.5" ry="12.5" style="stroke:#000000;stroke-width:1.0;" width="139" x="533" y="119.752"/>
        <text fill="#000000" font-family="Verdana" font-size="12" lengthAdjust="spacing" textLength="119" x="543" y="141.8164">Utilisateur existant</text>
        <rect fill="#FFFFFF" height="371.1025" style="stroke:#000000;stroke-width:1.0;" width="560" x="439.5" y="164.3359"/>
        <path d="M705.5,164.3359 L705.5,174.3506 L695.5,184.3506 L439.5,184.3506 " fill="none" style="stroke:#000000;stroke-width:1.0;"/>
        <text fill="#000000" font-family="Verdana" font-size="14" lengthAdjust="spacing" textLength="256" x="442.5" y="179.4111">POST /register/password-lost/step1</text>
        <rect fill="#FFFFFF" height="34.584" rx="12.5" ry="12.5" style="stroke:#000000;stroke-width:1.0;" width="304" x="450.5" y="201.3506"/>
        <text fill="#000000" font-family="Verdana" font-size="12" lengthAdjust="spacing" textLength="284" x="460.5" y="223.415">Requête POST /register/password-lost/step1</text>
        <rect fill="#FFFFFF" height="34.584" rx="12.5" ry="12.5" style="stroke:#000000;stroke-width:1.0;" width="306" x="449.5" y="255.9346"/>
        <text fill="#000000" font-family="Verdana" font-size="12" lengthAdjust="spacing" textLength="286" x="459.5" y="277.999">Appel de `resetChallengeRegisteredUser1()`</text>
        <path d="M714.5,314.9109 L714.5,323.8105 L694.5,327.8105 L714.5,331.8105 L714.5,340.7102 A0,0 0 0 0 714.5,340.7102 L989.5,340.7102 A0,0 0 0 0 989.5,340.7102 L989.5,324.9109 L979.5,314.9109 L714.5,314.9109 A0,0 0 0 0 714.5,314.9109 " fill="#FFFFFF" style="stroke:#000000;stroke-width:1.0;"/>
        <path d="M979.5,314.9109 L979.5,324.9109 L989.5,324.9109 L979.5,314.9109 " fill="#FFFFFF" style="stroke:#000000;stroke-width:1.0;"/>
        <text fill="#000000" font-family="Verdana" font-size="13" lengthAdjust="spacing" textLength="254" x="720.5" y="332.9807">L'utilisateur ne peut plus se connecter</text>
        <rect fill="#FFFFFF" height="34.584" rx="12.5" ry="12.5" style="stroke:#000000;stroke-width:1.0;" width="184" x="510.5" y="310.5186"/>
        <text fill="#000000" font-family="Verdana" font-size="12" lengthAdjust="spacing" textLength="38" x="520.5" y="332.583">Passe</text>
        <text fill="#000000" font-family="Verdana" font-size="12" font-weight="bold" lengthAdjust="spacing" textLength="122" x="562.5" y="332.583">`enabled=FALSE`</text>
        <rect fill="#FFFFFF" height="34.584" rx="12.5" ry="12.5" style="stroke:#000000;stroke-width:1.0;" width="251" x="477" y="365.1025"/>
        <text fill="#000000" font-family="Verdana" font-size="12" lengthAdjust="spacing" textLength="231" x="487" y="387.167">Génère une clé de reset (valable 1h)</text>
        <rect fill="#FFFFFF" height="34.584" rx="12.5" ry="12.5" style="stroke:#000000;stroke-width:1.0;" width="133" x="536" y="419.6865"/>
        <text fill="#000000" font-family="Verdana" font-size="12" lengthAdjust="spacing" textLength="113" x="546" y="441.751">Stocke clé en BDD</text>
        <rect fill="#FFFFFF" height="49.168" rx="12.5" ry="12.5" style="stroke:#000000;stroke-width:1.0;" width="271" x="467" y="474.2705"/>
        <text fill="#000000" font-family="Verdana" font-size="12" lengthAdjust="spacing" textLength="157" x="477" y="496.335">Envoi d'un email (Step 1)</text>
        <text fill="#000000" font-family="Verdana" font-size="12" lengthAdjust="spacing" textLength="251" x="477" y="510.9189">(RESET_CHALLENGE_KEY_GENERATION)</text>
        <rect fill="#FFFFFF" height="34.584" rx="12.5" ry="12.5" style="stroke:#000000;stroke-width:1.0;" width="200" x="502.5" y="555.4385"/>
        <text fill="#000000" font-family="Verdana" font-size="12" lengthAdjust="spacing" textLength="180" x="512.5" y="577.5029">Réception de l'email (Step 1)</text>
        <polygon fill="#FFFFFF" points="152.5,610.0225,307.5,610.0225,319.5,622.0225,307.5,634.0225,152.5,634.0225,140.5,622.0225,152.5,610.0225" style="stroke:#000000;stroke-width:1.0;"/>
        <text fill="#000000" font-family="Verdana" font-size="11" lengthAdjust="spacing" textLength="125" x="234" y="645.0815">oui, clic Changer MDP</text>
        <text fill="#000000" font-family="Verdana" font-size="11" lengthAdjust="spacing" textLength="155" x="152.5" y="626.3972">Action utilisateur avant 1h?</text>
        <rect fill="#FFFFFF" height="577.1138" style="stroke:#000000;stroke-width:1.0;" width="326" x="67" y="667.3911"/>
        <path d="M333,667.3911 L333,677.4058 L323,687.4058 L67,687.4058 " fill="none" style="stroke:#000000;stroke-width:1.0;"/>
        <text fill="#000000" font-family="Verdana" font-size="14" lengthAdjust="spacing" textLength="256" x="70" y="682.4663">POST /register/password-lost/step2</text>
        <rect fill="#FFFFFF" height="34.584" rx="12.5" ry="12.5" style="stroke:#000000;stroke-width:1.0;" width="304" x="78" y="704.4058"/>
        <text fill="#000000" font-family="Verdana" font-size="12" lengthAdjust="spacing" textLength="284" x="88" y="726.4702">Requête POST /register/password-lost/step2</text>
        <rect fill="#FFFFFF" height="34.584" rx="12.5" ry="12.5" style="stroke:#000000;stroke-width:1.0;" width="306" x="77" y="772.3584"/>
        <text fill="#000000" font-family="Verdana" font-size="12" lengthAdjust="spacing" textLength="286" x="87" y="794.4229">Appel de `resetChallengeRegisteredUser2()`</text>
        <rect fill="#FFFFFF" height="34.584" rx="12.5" ry="12.5" style="stroke:#000000;stroke-width:1.0;" width="164" x="148" y="840.311"/>
        <text fill="#000000" font-family="Verdana" font-size="12" lengthAdjust="spacing" textLength="144" x="158" y="862.3755">Vérifie clé et expiration</text>
        <rect fill="#FFFFFF" height="34.584" rx="12.5" ry="12.5" style="stroke:#000000;stroke-width:1.0;" width="189" x="135.5" y="908.2637"/>
        <text fill="#000000" font-family="Verdana" font-size="12" lengthAdjust="spacing" textLength="169" x="145.5" y="930.3281">Met à jour le mot de passe</text>
        <rect fill="#FFFFFF" height="34.584" rx="12.5" ry="12.5" style="stroke:#000000;stroke-width:1.0;" width="177" x="141.5" y="976.2163"/>
        <text fill="#000000" font-family="Verdana" font-size="12" lengthAdjust="spacing" textLength="38" x="151.5" y="998.2808">Passe</text>
        <text fill="#000000" font-family="Verdana" font-size="12" font-weight="bold" lengthAdjust="spacing" textLength="115" x="193.5" y="998.2808">`enabled=TRUE`</text>
        <rect fill="#FFFFFF" height="34.584" rx="12.5" ry="12.5" style="stroke:#000000;stroke-width:1.0;" width="227" x="116.5" y="1044.1689"/>
        <text fill="#000000" font-family="Verdana" font-size="12" lengthAdjust="spacing" textLength="46" x="126.5" y="1066.2334">Génère</text>
        <text fill="#000000" font-family="Verdana" font-size="12" font-weight="bold" lengthAdjust="spacing" textLength="157" x="176.5" y="1066.2334">Key A (sans expiration)</text>
        <rect fill="#FFFFFF" height="34.584" rx="12.5" ry="12.5" style="stroke:#000000;stroke-width:1.0;" width="151" x="154.5" y="1105.7529"/>
        <text fill="#000000" font-family="Verdana" font-size="12" lengthAdjust="spacing" textLength="131" x="164.5" y="1127.8174">Stocke Key A en BDD</text>
        <rect fill="#FFFFFF" height="49.168" rx="12.5" ry="12.5" style="stroke:#000000;stroke-width:1.0;" width="303" x="78.5" y="1175.3369"/>
        <text fill="#000000" font-family="Verdana" font-size="12" lengthAdjust="spacing" textLength="283" x="88.5" y="1197.4014">Envoi email de validation (Step 2) avec Key A</text>
        <text fill="#000000" font-family="Verdana" font-size="12" lengthAdjust="spacing" textLength="215" x="88.5" y="1211.9854">(RESET_CHALLENGE_VALIDATION)</text>
        <rect fill="#FFFFFF" height="34.584" rx="12.5" ry="12.5" style="stroke:#000000;stroke-width:1.0;" width="302" x="79" y="1267.4209"/>
        <text fill="#000000" font-family="Verdana" font-size="12" lengthAdjust="spacing" textLength="282" x="89" y="1289.4854">Utilisateur peut se connecter (nouveau MDP)</text>
        <rect fill="#FFFFFF" height="310.9272" style="stroke:#000000;stroke-width:1.0;" width="424" x="18" y="1371.48"/>
        <path d="M301,1371.48 L301,1381.4946 L291,1391.4946 L18,1391.4946 " fill="none" style="stroke:#000000;stroke-width:1.0;"/>
        <text fill="#000000" font-family="Verdana" font-size="14" lengthAdjust="spacing" textLength="273" x="21" y="1386.5552">POST /password-lost/step2/deactivate</text>
        <rect fill="#FFFFFF" height="34.584" rx="12.5" ry="12.5" style="stroke:#000000;stroke-width:1.0;" width="321" x="69.5" y="1408.4946"/>
        <text fill="#000000" font-family="Verdana" font-size="12" lengthAdjust="spacing" textLength="301" x="79.5" y="1430.5591">Requête POST /password-lost/step2/deactivate</text>
        <rect fill="#FFFFFF" height="34.584" rx="12.5" ry="12.5" style="stroke:#000000;stroke-width:1.0;" width="269" x="95.5" y="1463.0786"/>
        <text fill="#000000" font-family="Verdana" font-size="12" lengthAdjust="spacing" textLength="55" x="105.5" y="1485.1431">Appel de</text>
        <text fill="#000000" font-family="Verdana" font-size="12" font-weight="bold" lengthAdjust="spacing" textLength="190" x="164.5" y="1485.1431">`disableResetChallenge2()`</text>
        <rect fill="#FFFFFF" height="34.584" rx="12.5" ry="12.5" style="stroke:#000000;stroke-width:1.0;" width="98" x="181" y="1517.6626"/>
        <text fill="#000000" font-family="Verdana" font-size="12" lengthAdjust="spacing" textLength="78" x="191" y="1539.7271">Vérifie Key A</text>
        <rect fill="#FFFFFF" height="34.584" rx="12.5" ry="12.5" style="stroke:#000000;stroke-width:1.0;" width="404" x="28" y="1581.2393"/>
        <text fill="#000000" font-family="Verdana" font-size="12" lengthAdjust="spacing" textLength="97" x="38" y="1603.3037">Passe email à "</text>
        <text fill="#000000" font-family="Verdana" font-size="12" font-weight="bold" lengthAdjust="spacing" textLength="138" x="135" y="1603.3037">security_disabled_...</text>
        <text fill="#000000" font-family="Verdana" font-size="12" lengthAdjust="spacing" textLength="23" x="273" y="1603.3037">" et</text>
        <text fill="#000000" font-family="Verdana" font-size="12" font-weight="bold" lengthAdjust="spacing" textLength="122" x="300" y="1603.3037">`enabled=FALSE`</text>
        <rect fill="#FFFFFF" height="34.584" rx="12.5" ry="12.5" style="stroke:#000000;stroke-width:1.0;" width="199" x="130.5" y="1635.8232"/>
        <text fill="#000000" font-family="Verdana" font-size="12" lengthAdjust="spacing" textLength="179" x="140.5" y="1657.8877">Envoi email de désactivation</text>
        <rect fill="#FFFFFF" height="34.584" rx="12.5" ry="12.5" style="stroke:#000000;stroke-width:1.0;" width="220" x="120" y="1702.4072"/>
        <text fill="#000000" font-family="Verdana" font-size="12" lengthAdjust="spacing" textLength="200" x="130" y="1724.4717">Compte désactivé pour sécurité</text>
        <polygon fill="#FFFFFF" points="141,1324.9209,319,1324.9209,331,1336.9209,319,1348.9209,141,1348.9209,129,1336.9209,141,1324.9209" style="stroke:#000000;stroke-width:1.0;"/>
        <text fill="#000000" font-family="Verdana" font-size="11" lengthAdjust="spacing" textLength="91" x="234" y="1359.98">oui, clic Annuler</text>
        <text fill="#000000" font-family="Verdana" font-size="11" lengthAdjust="spacing" textLength="178" x="141" y="1341.2957">Annulation immédiate (Key A)?</text>
        <text fill="#000000" font-family="Verdana" font-size="11" lengthAdjust="spacing" textLength="70" x="331" y="1334.6113">non / ignore</text>
        <polygon fill="#FFFFFF" points="230,1756.9912,242,1768.9912,230,1780.9912,218,1768.9912,230,1756.9912" style="stroke:#000000;stroke-width:1.0;"/>
        <polygon fill="#FFFFFF" points="615.5,610.0225,747.5,610.0225,759.5,622.0225,747.5,634.0225,615.5,634.0225,603.5,622.0225,615.5,610.0225" style="stroke:#000000;stroke-width:1.0;"/>
        <text fill="#000000" font-family="Verdana" font-size="11" lengthAdjust="spacing" textLength="132" x="615.5" y="626.3972">oui, clic Annuler Step 1</text>
        <text fill="#000000" font-family="Verdana" font-size="11" lengthAdjust="spacing" textLength="79" x="759.5" y="619.7129">non, après 1h</text>
        <rect fill="#FFFFFF" height="437.9458" style="stroke:#000000;stroke-width:1.0;" width="395" x="484" y="654.0225"/>
        <path d="M827,654.0225 L827,664.0371 L817,674.0371 L484,674.0371 " fill="none" style="stroke:#000000;stroke-width:1.0;"/>
        <text fill="#000000" font-family="Verdana" font-size="14" lengthAdjust="spacing" textLength="333" x="487" y="669.0977">POST /register/password-lost/step1/deactivate</text>
        <rect fill="#FFFFFF" height="34.584" rx="12.5" ry="12.5" style="stroke:#000000;stroke-width:1.0;" width="375" x="494" y="691.0371"/>
        <text fill="#000000" font-family="Verdana" font-size="12" lengthAdjust="spacing" textLength="355" x="504" y="713.1016">Requête POST /register/password-lost/step1/deactivate</text>
        <rect fill="#FFFFFF" height="34.584" rx="12.5" ry="12.5" style="stroke:#000000;stroke-width:1.0;" width="257" x="553" y="758.9897"/>
        <text fill="#000000" font-family="Verdana" font-size="12" lengthAdjust="spacing" textLength="237" x="563" y="781.0542">Appel de `disableResetChallenge1()`</text>
        <rect fill="#FFFFFF" height="34.584" rx="12.5" ry="12.5" style="stroke:#000000;stroke-width:1.0;" width="95" x="634" y="826.9424"/>
        <text fill="#000000" font-family="Verdana" font-size="12" lengthAdjust="spacing" textLength="75" x="644" y="849.0068">Vérifie la clé</text>
        <rect fill="#FFFFFF" height="34.584" rx="12.5" ry="12.5" style="stroke:#000000;stroke-width:1.0;" width="177" x="593" y="894.895"/>
        <text fill="#000000" font-family="Verdana" font-size="12" lengthAdjust="spacing" textLength="38" x="603" y="916.9595">Passe</text>
        <text fill="#000000" font-family="Verdana" font-size="12" font-weight="bold" lengthAdjust="spacing" textLength="115" x="645" y="916.9595">`enabled=TRUE`</text>
        <rect fill="#FFFFFF" height="34.584" rx="12.5" ry="12.5" style="stroke:#000000;stroke-width:1.0;" width="170" x="596.5" y="962.8477"/>
        <text fill="#000000" font-family="Verdana" font-size="12" lengthAdjust="spacing" textLength="150" x="606.5" y="984.9121">Restaure l'email original</text>
        <rect fill="#FFFFFF" height="49.168" rx="12.5" ry="12.5" style="stroke:#000000;stroke-width:1.0;" width="249" x="557" y="1030.8003"/>
        <text fill="#000000" font-family="Verdana" font-size="12" lengthAdjust="spacing" textLength="158" x="567" y="1052.8647">Envoi email d'invalidation</text>
        <text fill="#000000" font-family="Verdana" font-size="12" lengthAdjust="spacing" textLength="229" x="567" y="1067.4487">(RESET_CHALLENGE_INVALIDATION)</text>
        <rect fill="#FFFFFF" height="34.584" rx="12.5" ry="12.5" style="stroke:#000000;stroke-width:1.0;" width="288" x="537.5" y="1126.9683"/>
        <text fill="#000000" font-family="Verdana" font-size="12" lengthAdjust="spacing" textLength="268" x="547.5" y="1149.0327">Utilisateur peut se connecter (ancien MDP)</text>
        <rect fill="#FFFFFF" height="34.584" rx="12.5" ry="12.5" style="stroke:#000000;stroke-width:1.0;" width="91" x="1002.5" y="1212.8369"/>
        <text fill="#000000" font-family="Verdana" font-size="12" lengthAdjust="spacing" textLength="71" x="1012.5" y="1234.9014">Clé expirée</text>
        <rect fill="#FFFFFF" height="34.584" rx="12.5" ry="12.5" style="stroke:#000000;stroke-width:1.0;" width="298" x="899" y="1270.3369"/>
        <text fill="#000000" font-family="Verdana" font-size="12" lengthAdjust="spacing" textLength="278" x="909" y="1292.4014">Compte reste désactivé (`enabled=FALSE`)</text>
        <ellipse cx="602.5" cy="1843.9912" fill="none" rx="11" ry="11" style="stroke:#000000;stroke-width:1.0;"/>
        <ellipse cx="602.5" cy="1843.9912" fill="#FFFFFF" rx="6" ry="6" style="stroke:#000000;stroke-width:1.0;"/>
        <line style="stroke:#000000;stroke-width:1.0;" x1="602.5" x2="602.5" y1="235.9346" y2="255.9346"/>
        <polygon fill="#000000" points="598.5,245.9346,602.5,255.9346,606.5,245.9346,602.5,249.9346" style="stroke:#000000;stroke-width:1.0;"/>
        <line style="stroke:#000000;stroke-width:1.0;" x1="602.5" x2="602.5" y1="290.5186" y2="310.5186"/>
        <polygon fill="#000000" points="598.5,300.5186,602.5,310.5186,606.5,300.5186,602.5,304.5186" style="stroke:#000000;stroke-width:1.0;"/>
        <line style="stroke:#000000;stroke-width:1.0;" x1="602.5" x2="602.5" y1="345.1025" y2="365.1025"/>
        <polygon fill="#000000" points="598.5,355.1025,602.5,365.1025,606.5,355.1025,602.5,359.1025" style="stroke:#000000;stroke-width:1.0;"/>
        <line style="stroke:#000000;stroke-width:1.0;" x1="602.5" x2="602.5" y1="399.6865" y2="419.6865"/>
        <polygon fill="#000000" points="598.5,409.6865,602.5,419.6865,606.5,409.6865,602.5,413.6865" style="stroke:#000000;stroke-width:1.0;"/>
        <line style="stroke:#000000;stroke-width:1.0;" x1="602.5" x2="602.5" y1="454.2705" y2="474.2705"/>
        <polygon fill="#000000" points="598.5,464.2705,602.5,474.2705,606.5,464.2705,602.5,468.2705" style="stroke:#000000;stroke-width:1.0;"/>
        <line style="stroke:#000000;stroke-width:1.0;" x1="602.5" x2="602.5" y1="154.3359" y2="201.3506"/>
        <polygon fill="#000000" points="598.5,191.3506,602.5,201.3506,606.5,191.3506,602.5,195.3506" style="stroke:#000000;stroke-width:1.0;"/>
        <line style="stroke:#000000;stroke-width:1.0;" x1="602.5" x2="602.5" y1="523.4385" y2="555.4385"/>
        <polygon fill="#000000" points="598.5,545.4385,602.5,555.4385,606.5,545.4385,602.5,549.4385" style="stroke:#000000;stroke-width:1.0;"/>
        <line style="stroke:#000000;stroke-width:1.0;" x1="230" x2="230" y1="738.9897" y2="772.3584"/>
        <polygon fill="#000000" points="226,762.3584,230,772.3584,234,762.3584,230,766.3584" style="stroke:#000000;stroke-width:1.0;"/>
        <line style="stroke:#000000;stroke-width:1.0;" x1="230" x2="230" y1="806.9424" y2="840.311"/>
        <polygon fill="#000000" points="226,830.311,230,840.311,234,830.311,230,834.311" style="stroke:#000000;stroke-width:1.0;"/>
        <line style="stroke:#000000;stroke-width:1.0;" x1="230" x2="230" y1="874.895" y2="908.2637"/>
        <polygon fill="#000000" points="226,898.2637,230,908.2637,234,898.2637,230,902.2637" style="stroke:#000000;stroke-width:1.0;"/>
        <line style="stroke:#000000;stroke-width:1.0;" x1="230" x2="230" y1="942.8477" y2="976.2163"/>
        <polygon fill="#000000" points="226,966.2163,230,976.2163,234,966.2163,230,970.2163" style="stroke:#000000;stroke-width:1.0;"/>
        <line style="stroke:#000000;stroke-width:1.0;" x1="230" x2="230" y1="1010.8003" y2="1044.1689"/>
        <polygon fill="#000000" points="226,1034.1689,230,1044.1689,234,1034.1689,230,1038.1689" style="stroke:#000000;stroke-width:1.0;"/>
        <line style="stroke:#000000;stroke-width:1.0;" x1="230" x2="230" y1="1078.7529" y2="1105.7529"/>
        <polygon fill="#000000" points="226,1095.7529,230,1105.7529,234,1095.7529,230,1099.7529" style="stroke:#000000;stroke-width:1.0;"/>
        <line style="stroke:#000000;stroke-width:1.0;" x1="230" x2="230" y1="1140.3369" y2="1175.3369"/>
        <polygon fill="#000000" points="226,1165.3369,230,1175.3369,234,1165.3369,230,1169.3369" style="stroke:#000000;stroke-width:1.0;"/>
        <line style="stroke:#000000;stroke-width:1.0;" x1="230" x2="230" y1="1224.5049" y2="1267.4209"/>
        <polygon fill="#000000" points="226,1257.4209,230,1267.4209,234,1257.4209,230,1261.4209" style="stroke:#000000;stroke-width:1.0;"/>
        <line style="stroke:#000000;stroke-width:1.0;" x1="230" x2="230" y1="1443.0786" y2="1463.0786"/>
        <polygon fill="#000000" points="226,1453.0786,230,1463.0786,234,1453.0786,230,1457.0786" style="stroke:#000000;stroke-width:1.0;"/>
        <line style="stroke:#000000;stroke-width:1.0;" x1="230" x2="230" y1="1497.6626" y2="1517.6626"/>
        <polygon fill="#000000" points="226,1507.6626,230,1517.6626,234,1507.6626,230,1511.6626" style="stroke:#000000;stroke-width:1.0;"/>
        <line style="stroke:#000000;stroke-width:1.0;" x1="230" x2="230" y1="1552.2466" y2="1581.2393"/>
        <polygon fill="#000000" points="226,1571.2393,230,1581.2393,234,1571.2393,230,1575.2393" style="stroke:#000000;stroke-width:1.0;"/>
        <line style="stroke:#000000;stroke-width:1.0;" x1="230" x2="230" y1="1615.8232" y2="1635.8232"/>
        <polygon fill="#000000" points="226,1625.8232,230,1635.8232,234,1625.8232,230,1629.8232" style="stroke:#000000;stroke-width:1.0;"/>
        <line style="stroke:#000000;stroke-width:1.0;" x1="230" x2="230" y1="1670.4072" y2="1702.4072"/>
        <polygon fill="#000000" points="226,1692.4072,230,1702.4072,234,1692.4072,230,1696.4072" style="stroke:#000000;stroke-width:1.0;"/>
        <line style="stroke:#000000;stroke-width:1.0;" x1="230" x2="230" y1="1348.9209" y2="1408.4946"/>
        <polygon fill="#000000" points="226,1398.4946,230,1408.4946,234,1398.4946,230,1402.4946" style="stroke:#000000;stroke-width:1.0;"/>
        <line style="stroke:#000000;stroke-width:1.0;" x1="331" x2="452" y1="1336.9209" y2="1336.9209"/>
        <polygon fill="#000000" points="448,1551.2393,452,1561.2393,456,1551.2393,452,1555.2393" style="stroke:#000000;stroke-width:1.0;"/>
        <line style="stroke:#000000;stroke-width:1.0;" x1="452" x2="452" y1="1336.9209" y2="1768.9912"/>
        <line style="stroke:#000000;stroke-width:1.0;" x1="452" x2="242" y1="1768.9912" y2="1768.9912"/>
        <polygon fill="#000000" points="252,1764.9912,242,1768.9912,252,1772.9912,248,1768.9912" style="stroke:#000000;stroke-width:1.0;"/>
        <line style="stroke:#000000;stroke-width:1.0;" x1="230" x2="230" y1="1736.9912" y2="1756.9912"/>
        <polygon fill="#000000" points="226,1746.9912,230,1756.9912,234,1746.9912,230,1750.9912" style="stroke:#000000;stroke-width:1.0;"/>
        <line style="stroke:#000000;stroke-width:1.0;" x1="230" x2="230" y1="1302.0049" y2="1324.9209"/>
        <polygon fill="#000000" points="226,1314.9209,230,1324.9209,234,1314.9209,230,1318.9209" style="stroke:#000000;stroke-width:1.0;"/>
        <line style="stroke:#000000;stroke-width:1.0;" x1="681.5" x2="681.5" y1="725.6211" y2="758.9897"/>
        <polygon fill="#000000" points="677.5,748.9897,681.5,758.9897,685.5,748.9897,681.5,752.9897" style="stroke:#000000;stroke-width:1.0;"/>
        <line style="stroke:#000000;stroke-width:1.0;" x1="681.5" x2="681.5" y1="793.5737" y2="826.9424"/>
        <polygon fill="#000000" points="677.5,816.9424,681.5,826.9424,685.5,816.9424,681.5,820.9424" style="stroke:#000000;stroke-width:1.0;"/>
        <line style="stroke:#000000;stroke-width:1.0;" x1="681.5" x2="681.5" y1="861.5264" y2="894.895"/>
        <polygon fill="#000000" points="677.5,884.895,681.5,894.895,685.5,884.895,681.5,888.895" style="stroke:#000000;stroke-width:1.0;"/>
        <line style="stroke:#000000;stroke-width:1.0;" x1="681.5" x2="681.5" y1="929.479" y2="962.8477"/>
        <polygon fill="#000000" points="677.5,952.8477,681.5,962.8477,685.5,952.8477,681.5,956.8477" style="stroke:#000000;stroke-width:1.0;"/>
        <line style="stroke:#000000;stroke-width:1.0;" x1="681.5" x2="681.5" y1="997.4316" y2="1030.8003"/>
        <polygon fill="#000000" points="677.5,1020.8003,681.5,1030.8003,685.5,1020.8003,681.5,1024.8003" style="stroke:#000000;stroke-width:1.0;"/>
        <line style="stroke:#000000;stroke-width:1.0;" x1="681.5" x2="681.5" y1="1079.9683" y2="1126.9683"/>
        <polygon fill="#000000" points="677.5,1116.9683,681.5,1126.9683,685.5,1116.9683,681.5,1120.9683" style="stroke:#000000;stroke-width:1.0;"/>
        <line style="stroke:#000000;stroke-width:1.0;" x1="1048" x2="1048" y1="1247.4209" y2="1270.3369"/>
        <polygon fill="#000000" points="1044,1260.3369,1048,1270.3369,1052,1260.3369,1048,1264.3369" style="stroke:#000000;stroke-width:1.0;"/>
        <line style="stroke:#000000;stroke-width:1.0;" x1="230" x2="230" y1="634.0225" y2="704.4058"/>
        <polygon fill="#000000" points="226,694.4058,230,704.4058,234,694.4058,230,698.4058" style="stroke:#000000;stroke-width:1.0;"/>
        <line style="stroke:#000000;stroke-width:1.0;" x1="230" x2="230" y1="1780.9912" y2="1800.9912"/>
        <polygon fill="#000000" points="226,1790.9912,230,1800.9912,234,1790.9912,230,1794.9912" style="stroke:#000000;stroke-width:1.0;"/>
        <line style="stroke:#000000;stroke-width:1.0;" x1="681.5" x2="681.5" y1="634.0225" y2="691.0371"/>
        <polygon fill="#000000" points="677.5,681.0371,681.5,691.0371,685.5,681.0371,681.5,685.0371" style="stroke:#000000;stroke-width:1.0;"/>
        <line style="stroke:#000000;stroke-width:1.0;" x1="681.5" x2="681.5" y1="1161.5522" y2="1800.9912"/>
        <polygon fill="#000000" points="677.5,1790.9912,681.5,1800.9912,685.5,1790.9912,681.5,1794.9912" style="stroke:#000000;stroke-width:1.0;"/>
        <line style="stroke:#000000;stroke-width:1.0;" x1="319.5" x2="603.5" y1="622.0225" y2="622.0225"/>
        <polygon fill="#000000" points="593.5,618.0225,603.5,622.0225,593.5,626.0225,597.5,622.0225" style="stroke:#000000;stroke-width:1.0;"/>
        <line style="stroke:#000000;stroke-width:1.0;" x1="602.5" x2="602.5" y1="590.0225" y2="595.0225"/>
        <line style="stroke:#000000;stroke-width:1.0;" x1="602.5" x2="230" y1="595.0225" y2="595.0225"/>
        <line style="stroke:#000000;stroke-width:1.0;" x1="230" x2="230" y1="595.0225" y2="610.0225"/>
        <polygon fill="#000000" points="226,600.0225,230,610.0225,234,600.0225,230,604.0225" style="stroke:#000000;stroke-width:1.0;"/>
        <line style="stroke:#000000;stroke-width:1.0;" x1="759.5" x2="1048" y1="622.0225" y2="622.0225"/>
        <line style="stroke:#000000;stroke-width:1.0;" x1="1048" x2="1048" y1="622.0225" y2="1212.8369"/>
        <polygon fill="#000000" points="1044,1202.8369,1048,1212.8369,1052,1202.8369,1048,1206.8369" style="stroke:#000000;stroke-width:1.0;"/>
        <line style="stroke:#000000;stroke-width:1.0;" x1="1048" x2="1048" y1="1304.9209" y2="1800.9912"/>
        <polygon fill="#000000" points="1044,1790.9912,1048,1800.9912,1052,1790.9912,1048,1794.9912" style="stroke:#000000;stroke-width:1.0;"/>
        <line style="stroke:#000000;stroke-width:1.0;" x1="230" x2="1048" y1="1800.9912" y2="1800.9912"/>
        <line style="stroke:#000000;stroke-width:1.0;" x1="602.5" x2="602.5" y1="72.7373" y2="119.752"/>
        <polygon fill="#000000" points="598.5,109.752,602.5,119.752,606.5,109.752,602.5,113.752" style="stroke:#000000;stroke-width:1.0;"/>
        <line style="stroke:#000000;stroke-width:1.0;" x1="602.5" x2="602.5" y1="1800.9912" y2="1832.9912"/>
        <polygon fill="#000000" points="598.5,1822.9912,602.5,1832.9912,606.5,1822.9912,602.5,1826.9912" style="stroke:#000000;stroke-width:1.0;"/>
        <!--SRC=[fPRDRjf04CVlFCMKGsDRQH0SWwgA1YUDIaW4IQIUoDQUa6sNjRjUqqHLtgN7kA_X5-ju3MODX3Qj3qPQpzVk_pUplD9tE4E81UEoeRaM27tEfehDQ3NSOu7cSwxp30xXIEKPqpoIy1f6USObrvm9dfHh8S9Pf8kV2vOas6WacYdTYEd5ZK7pMAJtq2a2tJ4XK4xh7d21AaoRyAC1z9ZNuPNc9W6c2l2UKqYfk-QJ5VVYV7m9BOLJ-ewg5LEmxv4AtuWeqIrQYjlBe2Rc2B-b-IzD-VxerrrvzU8OHL7hZS84TRM5qS8Tmwi4LTjnRoodSb-UTuEIVHOOlZtk3SR-ZUUjR6H4bIW-lTFLKl4Czb9hwv84mbIJIca25368fCI0ibO-A4CJQfNx9Cza_gGGKl8E12b8nPlQmPapKTG3xJlNgdQie-3hmXOblE_thO- -d4USW4Wbu8nn0SwOJWZQRcNYZFonVpav-j0R3FpXYJ_vw7-QdFX3VzIxF3qVBZ8zDafb2Q00uoKvOgyUj5jQyLjmUe4nie-3pGa3AlwT2qIl12TA-JxLpOC2BH95mLd_ObNPIrZfsAoya9TEj-xvTynqQimOn-iyK_oMBxNGn7xCbUcpDSip-fZ_X2yH7Gi9EYlxgIWDromtMBmSNTLHh6FZUH_n0NhW94mcLW7kXik2cz9y7HmBdb9YAe_mus4vDKh1EovfYa4PekQw0TLrRt3Qju4geQfIsHF3z8pTBk38A9qZImqV2yWgqAHCHLaLdytoBEGK1HnJaxi5DMEFogtLku7Q5afQ8PgnIk7NOTi6tEu8tKt_2ZiIEwIp8BL7DVuAujPLh7DdDht5e8Ie59AmQtfUWa6gk7wOB3A5auE30yzh5jJk77pFmH7cMRBOt0RkZtMiZg9Ph2qFwfMuQ8I4PajHL9wjt55GuII_X1RmgOmKklRmvBSb38LP0SE6pB0-xbvq0UsG_2NtqREwMwDcg-Bj7JD6C3Dc_crSK1hDKhMQu17TPLmoiMi2x76v6W6xs_rq-9yDpsJ0gM-jVgz8s0SMg_mfAQx1LRmZCtABSPTdrYalOQD9leQSimPvbQUawf7-24NnRm00]-->
    </g>
</svg>
